<mxfile host="app.diagrams.net" modified="2022-04-16T02:55:15.771Z" agent="5.0 (Windows NT 10.0; Win64; x64) AppleWebKit/537.36 (KHTML, like Gecko) Chrome/100.0.4896.88 Safari/537.36" etag="CJYEyT79gs4zRF_uwGxG" version="17.4.4" type="github">
  <diagram id="1Mp7u-AnszmgudpKYa7P" name="Page-1">
    <mxGraphModel dx="1315" dy="719" grid="1" gridSize="10" guides="1" tooltips="1" connect="1" arrows="1" fold="1" page="1" pageScale="1" pageWidth="827" pageHeight="1169" math="0" shadow="0">
      <root>
        <mxCell id="0" />
        <mxCell id="1" parent="0" />
        <mxCell id="VbQuB4XpZksFyxAy7RYw-1" value="" style="rounded=1;whiteSpace=wrap;html=1;" vertex="1" parent="1">
          <mxGeometry x="140" y="70" width="580" height="60" as="geometry" />
        </mxCell>
        <mxCell id="VbQuB4XpZksFyxAy7RYw-2" value="WEB" style="text;html=1;strokeColor=none;fillColor=none;align=center;verticalAlign=middle;whiteSpace=wrap;rounded=0;fontSize=30;" vertex="1" parent="1">
          <mxGeometry x="160" y="85" width="60" height="30" as="geometry" />
        </mxCell>
        <mxCell id="VbQuB4XpZksFyxAy7RYw-4" value="" style="shape=image;verticalLabelPosition=bottom;labelBackgroundColor=default;verticalAlign=top;aspect=fixed;imageAspect=0;image=data:image/png,iVBORw0KGgoAAAANSUhEUgAAAMgAAADICAYAAACtWK6eAAAAAXNSR0IArs4c6QAAHNxJREFUeF7tnQn8f9lYxz+oSRNSRBoyKZSllBYUFUPZStqtg1BaVJJSKm1aLJVUBsVIi9aZJGQZlCWZpFQmQhnStNhC9Eqv9+t/7/y/853v93vP85znnHO/957n9bqv72/mf9bn3M892/N8nsuoS9dA18BeDVym66ZroGtgvwY6QPrb0TVwQAMdIP316BroAOnvQNeATwN9BvHpredaiQY6QFYy0L2bPg10gPj01nOtRAMdICsZ6N5NnwY6QHx667lWooEOkJUMdO+mTwMdID699Vwr0UAHyEoGunfTp4EOEJ/eeq6VaKADZCUD3bvp00AHiE9vPddKNNABspKB7t30aaADxKe3nmslGugAaT/Qp0r6WElXHn5p0bskvXP4fV/7Jq63BR0gZcf+NEnXl3S94Ze/P2ELEKdMNOGDW4C5SNLrh+eC4ffCst1Yb+kdIHFj/4WSztgAAqC4QlzxB0t6r6QRLIDn+ZL+vFLdi66mA8Q/vDeXdDNJXzoA46P9RRXJ+f4BKC+S9ApJLy9Sy8IL7QBJH+BrSfpKSbeSxGzxSelZZ5HybcOs8hJJ50j6l1m0auaN6AA5PEAfNYACYPB8zMzHM7V5/z2ABKDw/E9qxrWl6wDZPeIsm0ZQnL7wl+LNG2BhOdZlQwMdICeVwexwpqR7Sfr8lb4lfyHpbElPlcQss3rpADmxlwAYPNdd/RtxQgH/OIAEoLB3Wa2sGSCfsQGMq632DTjc8X/bAMrfr1FHawTIp0t6sKT7SGIT3mVaA2zif03Sz0v6h+nky0mxJoB8hKTvkfRQSR+/nCGs2pP/lPSzkh4t6X+r1tyosrUA5GsGcHxBIz0vrdpXDiD53aV1bLs/SwfIZw0zxt2XPpCN+veMYUb560b1F692yQD54QEcc7jc467hNcODpe6hh0HHuvdKw+/m3+P/u4Gkmw5GkMVfkokKOA5m2fXI1g0pUf8SAXJtSY+R9NUlFJZQ5ggEvqrj35iul5CrSPrsjaclaH5P0kMkvaVER1uVuTSA3GlYG2NWXkveIemPJJ07/Naqd189nyIJQ8rbDkaU16zYICyJOQh5VsU6i1a1JIB8n6RHFdXWycJfK+nZkp4r6bxKdXqq4RgboIwPdz815Psl/VSNikrXsQSAfOIwa5TeiL9V0pMlPe+ITcexRAYstx/2MCXfLzbwzCb/WrKS0mUfO0Dwx3iipM8sqKg3DsB4iiS8+ZYiD5DEw76llDDTPnDwRylVR9FyjxkgWNs+aXBhLaGk10kCFDzvLlHBTMosDRQ+KvcfLIZn0uX0ZhwrQO45WJ2m9zQ95fkbwFiTn0RpoGAl/fT0YZhHymMEyLdI+qUC6sMwDxMKzvTXLACF41p86qPlQZJ+ObrQkuUdG0DY9JV4gc8ayn1DSWUfUdkwrzxsAEp0s7GF40N0FHJMAOFm/EeCtfrCYbD+JLjcpRT3xQNQOPWKFMbxKG7ejwUg9whev0JYwEz0+MhRX3BZLGuZUbBSiBL2kb8eVVipco4BIJzbc/cQJcwW3yGpL6dsGuVGHpB8my3bwdS3k/SngeWFFzV3gHCx9eLAXjNjAI4ufg18p6TH+bNfKifLOKiIZilzBgjECfgdRAnA6EuqGG3ebbg8jSLLw08HwojZyVwBgh/HH0jC8C5XWEoBjr4Rz9XkJfNjco9OPzmg2DdJ+ipJs/MrmSNAsK3CCDDCfKTvNwLe3oki/jLIXAWzlC+bm+3WHAHCyUaE4eHvSPq68u9Hr2FYbt0vQBMYOHJiORuZG0CiTNY7OOq/YlH3VLMylZ8TQHB2wvEoVzo4cjXozx8FkjvPxelqLgDhAop9R64nYAeH/+WOyhkBEjwT2Y80d9+dC0Cgj8n1If8VSdz4dmmvATw7WS7nCD7u0DU1lTkAJOKLczS2PU1Hu27lT5CE9W6ONB/X1gDhvoNQYTnUPBzl3iFnFHreYhrIPZGEUohgRc3uR1oDJFeB/yHpqsWGtxecqwE+fOwtecm90vTotyVAWF+yqc4RwAFIusxXA/AGABJI77zytZKa0Jy2AghE0n8mKYcrFx+F53g13vNV1cA3DfwB3kqxyfuiFoTZrQCSeyH4Q5J+zKvtmea7rCSM/3hO3fib/76cpPcMDwQSUJd+aKb92NcsQifkWFI3uUBsARDic7Ax94Yg4DLxK47s5dhuLvc9Nx7szcbf6xj79MGBbQXgAJpNAO37e+QEhgqVv/mtGWoND07iP3qE0AvsZarGJ2kBEJz2v9mjoSEPX85TMvK3yAr3FDRFLAsBxNwC96DTQyDbBaxNkI1g+/CEcrH8xbgRn3ePVL/rqg0QqC//KuAFIdrRfT0arpSHJdKth+cuQWb7lZqeXQ2BdcZZbR+wftBZCzRMkHVXCwdXGyA/Lel7ncrZznYbSUzZcxJ8JHBJvaukq8+pYQtqy88Mrr9VulQTIESTZfaICphJ9NXTqmhpupJrSPr2ARxXnE7eU2RoAP4yZpEq0XdrAuThkn4iQzG7slb9muxowOUHYACOawX3rRe3XwM/IOknayioFkC4UWX2KBGH/CaNTBGgrYHILsLzscZYL6kO4rgzixQ/gasFkG+V9IuFRgg7HUBSS5g1iH1BKOku7TTAXg+DyKJSCyDchMJSUkrY+JegJN1uL+fwgINb3S5tNQALSo4lRlLrawCEiyHvaRNn5p+b1JMTzlYXJKb1JOMWGHBEUd142tDzXFIDHKW/qKRSagDk55zLEehBMSeBWDpFXjDE5EtJa03zNEnQ93eZlwYwX4HIrpiUBgg3xpgGnO7owSMk/fgQnSh1KuXykEvESHmmJKxJu/g1MF4ccls/3tiPf4+/nstDwmtjulQsjktpgEC789tOvXLHwVk3Lz1RnlKF41biCUZILXBgV0W0XB6ES0aeliY1nBBtvsSbL/lo67X5u2mqsv3v3K5PCR9SDyfB10tinIpIaYDg7AJNpVVYVhHbbhSMG2+RWMhvSfrGxLSHkpUCB/sqyLghbQYQBLn8rz0N+ThJEOkBFki8IXtO3ZNZVcBecdvwsfgx6kYjrR/CMetvBPGo7dRXSYDwJcdmxuNOu01ofG9JTzWM+DdkzFxUEw2O3xwOKtgnQbOZI9CxYmbDBjXiQzC25TWDtez7chqXkZfj8/c78gNibPzYs4ZLSYBwTu0hi+brCuXLtsDyDtt7ivBF5lLS423IHubMlEoS0sDMwUbypQlpPUluORyA5DLCjHVXt5bd6jSRpwj/ZhUsGYrcs5UEiJfKZ99G2xpExxPqwFrHvoEEEAADgNQQAMLFJYDJFShEfzW3EGd+ltEsp61SjCKoJEBYW1stWpliWUKMm9VtRVkdbvDBODdR2xgcnhcQvLKltyMnfz+a2N99yfDzYPmGaVALYRlK/RbhfWGvFi6lAPIlzgucZ0u644FesrdgPZ8q2OxALZSytiVybi7xHMuDx6Y2rlC675b0mMyyOUDgQKCFeNvPIQMfuFApBRAvGVyKyQiDd4ZBCykWvxEMKzhGnWNoV8mkzJx/mFkBRAuW4/XM6i7OjjkPhB5WKUIyVwog1pd4VMYNJf3dhGa4tLOee3NE+vw95XKUypcnxyp3vLOxDmrJ9PjfXJhRwcsy+awyqtbbHUsmxpdxDpVSAGFJw7GdRf7G8JJC97PrpGtffYcGmz1DTkhiyCf23WNY+l8iLeCH7MArxGnhnqG2MPsxC1rkAyXs5EoAxLv/wBo31R0Xl1brCdGuKRg6nX/KCCPGpd2rLaPYIC2EEVxOeoRDEe5cagvvAe7ZVgnfh5QAiHf/gQm55Yjvjx2cvKxvmU1GIawxFroewYwmlxnSU68nj2dZOtbDEfLveyrNyMOH51WO/OH7kBIAYUq23vC+V5LVl9uzEd0+ncE83uPlCPGd5wvnGPOwLN6PwdTJYlgDtwpi2XplY+GccHpMm/ZWUwIgLDk+x9gx4mRjXmIVTo2sJHLjSZn3UpBLwNQbfWt/SqdHz57LRJzdPF/0nP48a+LIf1fZ5wcFFL247BIAweDtCkbNeO36uTNBkRbBNPrmks6WdCNLxiEtR8LW/Y+jmiJZWC55SKAxRY8m3JjqIEtfZj2LeFYiB8uPBgjHnR5Tc2yfcEryCOtjYmxbhJnHekpC+cVMGiyNz0zrMQHyzvA5TfXO8NfMPN6+RJujAYKJAKYCVuEOgmNej3z5ENDek9eah6VVKcNDa1u86Vli8cJbJdLPJqVuiDg85i6hhILRAIFzF+5di+BM85GWDDvScppUOp4djl+YuixB8JnB0cgimOFg7VtLCJHhYbAPbWc0QB7n8BFm85fLeILpCSdUJaUKzUzJDmyU7aFhYq9HeOaagj8RLrUWgQPhuywZDqWNBghHgjCYW+SJmWzvY12er6KlnaVZUyxtyU17PUmEWrZK9PsyVb9nZRAaszK6w8wGVpfQqMAoOfRCUwP12sEqeCrdMf07hHtW+7Pa+xDPpTNWA58XNRDRAPFcvEWuGXODgu7TK+bj0IwuSTzeezg0vbyiEuAi4wrAIrg4MEOGSDRAYN62Bkfh1p3lUYRwyoRrbrSE2/hEN9BRnsdmrrZ5DfzH3FdZ5KLACAKKBgiXcFaqmuhgnCVI3oiMVIQUwDLywWlZLv2zsUycmTiIqSV3kkTIPYtAoRQWwSsSIERV8tDEcKv9CosGJtJ6/Zr3FRuq8MB+RhRl/aABDkBSS7zOUzDphLCzRAIEn25PUBMoW6IDM0I6cJ+gUeSokchRSxSc09B/qnCqxDKrlqD31zkqw1kMp6tsiQQIip7yBtzVYIAFwUOkQFUaNSthVs9Uv0SxGgQW8do7oFjvRxdghcQxjATIzZwnHLCl4w0WLU+ShF91rvyCk3w7t94a+a2xy2tbE3jJ5MKW7XMACJt6j0nB1AuEJx33Mrl97AA5qWmYX7iFryWYILEHtMosAeJdYuEUQ7jgEpIbk5029SXWyZEhHAU+/LXkSs53Y5ZLLC+LRok9yDiAWIQSiSjHGLJv0k/CgVgc1ou7HDBBBufZbIexzOQuPzY7z9EaDitW+dSBOMGaLzU9nK05y4J+zHtS01zcYa1QS2DZhFTDKjjsea4cLlVPJEAonL0EZsoWubGkv7VkMKalfGYRKw3RZjX9ovCENu5Q0feG+jzHvBHuExePfTRA/l3SVYwvMEeyvMAlxRsGbmxTNzU5oQlMzz1WwN6x9bCbwOh/VW+F2/miAfJGSdcxNq7Gy8cBAidanlgldIeg9QSvX5LgY/5wQ4e4mfbqz1DNJZJ6vB9ZkrFsD5FogMAqQYB3i+CFiE9IacEi12smEWpCXbqjieVbXRPgLKsd/tpjrIibrpVVZ6/KogFCSF6sRC1Sy74HE2heCo4OPcLMmBsdylNviTyezS+HHQSqqSkEcbXO3PAssyoJkWiAeO4dahKTwfT+UKfm7i/pyc68c8uGhQGWBhaJ9NtJrdfDwBIaJSsaIJyTW82hQ9eME5pnFmC5BKmzVcJZ+6wNCEzvYb9kZVDC1+ZQt2C6sXKX4Y/OoUyIRAPES8FTytxkl5LYcOPm65E10/5cTRLOSDWFOyjrJW+of1E0QE53rtNL34VsDuq1h72I1fORMtZKHEc4Ais5Xy6QmO05FbUK+6s3WzPtSx8NEOrxxAa5l6SnR3UqoRxsiqDT9MgaqUfxrbGE4fbodTsPnMvWiF3hMUJKAIRjNmygLBJF/ZNaJ/SUnGh5Aj+ujbwaXx3ukQjuWVNgz0+NFzO2i1jv1muGg30qARA2s1YGQkxNWGbVFA+lzNg+jh7ZyxyTcCnoIaAOPRUyKIw4hbjcWgTyD2vojeoA8b54tTmX8KFnELxfnAc4jkotgx2ZliPqs5wFhm56E9vgNXM/igA6Xkf72pQyjJU1rPT2+LKUhIBtzkIYbJYeHglfsiQ2gviTxKG0ijVK2WT5JZZYVIrdDq60Fql1o77dJs+ScCyDAJlW40yLTiLSYrxHoFGPhH+RExvhWYVwOMSqIFRKAeRcB9ExFr1Y9tYWllgstbzKfaUk/PHnKBBXeHUKZxYUnpAB1hZrFGPaB3+WNdrYZL9KAYTbzMdO1n7pBOFTZGIbPF+szaKxBoCP6x2J9ZVOdvUhWKnVsnqzXa3iMHqXhEVI7UoBBKf5zWiyqS8EYbe8t9ypdexKl7thH8tk7fy8nIYE5L2dpOdmlgPHMrPHuzPL8WT3fqyK8AaXAgiKuVASfuoWwfbGyjhuKf9QWoKIQtCQ6/OAMSTE0C0Egm3izedKbd/zzfZyMMAsYhEIC/FDD5eSAHmmJOJzW+W2kiAoayHcGMPKmCtcJkJuUCvYJ8E5H+yMYLvdV07lCGjkodvJ1RsuvXykrFKM8bEkQIjI9HhrT4cXiy9YK8kxQ9luMwABKKXiGuJxBzAASJTUcmDb1V7uarizsQp+KvirhEtJgHDxB2WOdcnC0gyPsBanJ6OC8fu4X6C2YSQEJISJY32fIzh+McsCDmucwal6OX30RP+dKjfl36F/IlCR1Z8c9hJMYYqw75cECEp5hqS7pWhnKw1mEY9y5IvM4gknl1I/LwFAgRcXa9WpgeVDg481/MAAo9QeDcomfD5endKJAmkw38GD0Cr4ttzdmik1fWmAcDvO19MqbxhmkfdYMwan9wLc0gzW+gCFo+LRvBtAcETLrzXeiqXuzbQtDxdg1wSYnmNpZlH2u0WkNEAIZEJoA/xErBLqGWatfCM9ZvHsS5YsoYEvHYriDgNSDavg9wEVEXFOikhpgNBoLycVR77sRSACay2e+O+t25xaPy8XS6uocBGp9Y7p+Igye9zQmrHGgU4NgOREn215orI9Xvdu4DTkeGfMWVqb7kMGAWu8R24tCSadYlIDIDQeeyXO1q3ChhY7JwzR5iDsqbjtx61zCfICSWc07Aj+5sxcHh6rKrZ7tQACebT3nPphkqDrmYtwqkQIgIjgPC379OFhafWSho3w7j1oMvdsTyjd9loA4S4EV9zrOjrEvQgWqfzOSfAlecQRxy9sZco+jiEGlcwengMcYqFjhR3C4H7opaoFENrgdfkkLzMIM8ncBGYUQFKbcTBXD8wa7A3/L7egjPwe1sSxumr7ppoAwXCRWQR+JauwB2Evwp5kjoINEXZnPFbLgRb9Yd/B/qOVcPPN7OGhgcXCgtnDE1HZ3N+aAKFxHqaKsVNPk3SmuYd1M7BcGIGCufgcZQ5M9ZxacXrlkaqridoA4cvBLMLZt0da8MN62kmecVbBRwQ7ozkIX22WViWiCqf2j5tv2Ec8wp0Ns0dIiOeUBtQGCG3yEFyPfcG/+jZHQJSwqfvLSuK8nss4fE5qhxDYbEvtCFHb7yDH47gyeExKKKs6BVELgGAaQKwJL5EARn53TkH/TNMQPw/AcC+EDnggfhj/5pcZFiPG7eetw9Em9KlWwZHKSsRmrWMqPTOH1wIZggwYczBdqiYtAELn8HfOsdbFPspDglZNsYUquq+kpzjKxpSDpVVL48+cOw+6jCs2l7RVpRVACPQJk4iXcQMl3cXB3VpVuQUq87gx0wx8PPD1aCUsK1laefeeWGJQRnW7vFYAYaAggcZV0ivsRwi3QLyPNQhMjp5QdXg0tvTQ5HifZbGXwZKx5WSQYDrVpSVA6Cwxt3OcXbhRxcNuDQKlkPUOCYtollZ8TFoJMwcHK17BJ+ce3sy5+VoDBPYKNuw5l2scXUIztGTx2rI1+/IOg4GzHAaeXsGUhI15M3rX1gBBcV4epE2lw0QS6UPuHdBS+TjBsYaN4zIOYLWSCPKL1vZimgNAGEBPsMbtgW+uzEJvIqwl1ph7HIWytCK2Rwvxkk9vtnUW0bzmAhDO9WEDvH7maC4RJLAbXtGoF/Z1kBm0EMgl4MnNkddLAmRvySkkIu9cAEJfIhRLOUsCyUMcLI1QFnm4pSLeJ0LpYTOXK1wEc/LVXOYEEJSRe4E4KnQpILGGkYAZhaUVzOy1xUvbs93OJheC+5Q1N4DQztyj37GvrYiwo15Mz8cCa+eIL7i1Dzn2dZt1NT3S3dXpOQKEwJrsRyII0gDbPa2jPZP0H5KExUGqtHAHIBgq4GB5nCv4+rDvaHWwsLP9cwQIDcU5CtMITyzz7Y6eNwR2nJXiJ94mKxcXRo0YQEK4V0u4ewIcVib2Xe27aAh+04p6aK/O5goQGoz9EAHsIwTGQu5JXhxRWIUyIFSwSO2AolxAAo6o8HOztaubM0B4QVgenW15Uw6kxdmGdb31TiGo+uRiHjmwpqRmIMaih/84tfztdN7oYfvq4+Tr6d7GlM43d4DQ/xxisV36Y1biJfRGfi05JvBEWeJyYJ/FqVUNDzvcibF6iHR7ftAwE5XUaVbZxwAQOhgVOWlU1jsHkMxtNsHHBfaXVMGUxMtKmFoH6QAF4PBQ9OyrpyVZdnLfjwUgdCjCZmtbMcwm2Aydn6yxcgkJm829R6rUMMUoMWvQv6O5pzomgKBYNofRVPfsTYjRTlReTlNaCWwdfFVTBONFTq1KWrlyG89sFjlr0Df2lRy/H4UcG0BGkGBO4eFUOjQonHQBkhpLlu120Jd3Gd6YkqEh8L1gb1DChYAIvAQPOho5RoCg3FsNm7sbFNA09ybMKDVdVAEmL32KlAqTRpxDgMHMVEJgdGnJA+zq07EChM7C/sERJ1+lEsJgYvrAU5IDln6kevwRJo1Tq0g347tKggzijiWUKOlNkuAxho396OSYATIqG5YPBriUYAA4AgUz7GghEjBM5SkSxXQPKDGJ58khzphqM+Yj3HOU3CtNtSHr35cAEBQQfQy8S6ls5nHsIlwZDxvlXIHhPNUE5jmSbp9ZIfZtIzBOyyxrKjsfFcYltX9T5TX596UABOVBxPYySZeroEnAMQIlBywwBT4wob2Ak70B/bMIxo6s/XnYt/FbQ2Zlsp7T4SUBZNQDt8qwN9YSwPLCYV8AfxOb/BTBEnYqBPRYjoUo70YD0cEIiNIzxWZfWYIya8zC2SllEKbSLBEg9JkN9i2nOl/o32EvfNXQBowjASwmIdvCUXUK0cRUmLSbDLy/7CVglCd0dAvh4hIPyOZuspGdXypA0BE371y85VAKRemaOw6+rjxsXHnweZkSrHpZWjELQMCG+T8xxWE44ZfYfl6O46m6U/+dEz54f7FvW5wsGSAMFr4KgCSHnG5xgx7YITbigONoT6mmdLF0gIz9h+aUtXHJI80pXS/p39lrPboVHWhNRa4FIOiUEx1AwozSellSc4wj6+JAghkDcFQnko7sSGpZawLIqBNOuDDrwAuvS7oGzhpMcKrG50hvXpmUawTIqMmbDiDpQDn8bgEMHmKMrE7WDJAOlA6MScB3gJxUUZ9RTuhi1TPGNmI6QC79DYEfGEYVnltMfmKWkQATlnOGp4RB5tFqqQPk8NBxGz+C5dOOdpR3NxwOrREUL11Y38K60wGSpkqOiEegEC2JW+1jlLdJwnRlBMYqjmpzBqoDxKc9Yp4TVHJ85mDOsqsnmIEQLHV8Ug0pfVpZYK4OkJhBBTCYkvPLHuYaMcWaS3n7YO8FEDCU7IAwq/CSGTpAMhW4JzskDAQXBSzj7/j3qZlVQg10wYbx4/g3vwTb6RKogQ6QQGUmFnWKpMsPMcP53f6bYj4wPDhKbf9tYV5MbFJPtk8DHSD93egaOKCBDpD+enQNdID0d6BrwKeBPoP49NZzrUQDHSArGejeTZ8GOkB8euu5VqKBDpCVDHTvpk8DHSA+vfVcK9FAB8hKBrp306eBDhCf3nqulWigA2QlA9276dNAB4hPbz3XSjTQAbKSge7d9GmgA8Snt55rJRroAFnJQPdu+jTQAeLTW8+1Eg10gKxkoHs3fRroAPHpredaiQb+H30r3QUnphcyAAAAAElFTkSuQmCC;" vertex="1" parent="1">
          <mxGeometry x="350" y="78.75" width="42.5" height="42.5" as="geometry" />
        </mxCell>
        <mxCell id="VbQuB4XpZksFyxAy7RYw-5" value="" style="shape=image;verticalLabelPosition=bottom;labelBackgroundColor=default;verticalAlign=top;aspect=fixed;imageAspect=0;image=data:image/png,iVBORw0KGgoAAAANSUhEUgAAAMgAAADICAYAAACtWK6eAAAAAXNSR0IArs4c6QAAE+JJREFUeF7tnQnQtlMZx/8oshtLRdZUBhEqS2XPUkQLIm0ylDYVFZHIUpakvYzQYk/alMpSRCGSFmmxlpIpmrLU0DS/r/N83/s+37Pcy1nv+7pm7nm/5b7Puc7/nP97tmtZQCYhEVhR0qqSVnHPEyUtNeJZesa/LSTpEUkPu5/8efDwb/dIun3E89+QDelr2Qv0teEe272ypM0kbTSDCANCPM5jPdOKutOR5gZJg+e30z6y/5+MgBGk/giBDJtK2kTScyU9tX4R0b745wyyQJqrJd0VrfYOVGQEmd6JEGFHSRu7Z/npn2T9xm8kXS7pUvdAIpMxCBhBRgMzIMWL3EzR1QHE3uYHkn7oSHNdVxvatF1GkHnI9YUUk8bKlZK+6Z5bmw6qLn3Xd4KwXNpb0l4dnymajFmI8g1HlnubFNCFb/pKkPUdMV4taaUudGTANjwg6UJJX3bLsYBV5Vd03wjCZpsZA2KY1EfgYklfknRe/U/L/KIvBHmDI8XWZXZTdlr/1BEFstyfnXYeFeo6QZgt3uIu8jzCZkU5BO6WdKqkT0j6RxdR6SpBXiLprZK272KnZdgmTrw+6Z4M1WuuUtcIspWbMXZrDol92QIB7lEgCkuvTkhXCLKhpLdJ2qcTvVJ+I77niMJRcdFSOkEWlHSIpEMlLVF0T3RT+ZMlHSHpwVKbVzJBdnLEeH6p4PdE7+sdSS4psb0lEgRTcmaNN5cIeI91Pk7SByQ9WhIGpRFkfzdrrF4SyKbrXASuciS5ohRMSiEI5iCctb+8FGBNz4kIvFPSKSVgVAJBNnfkeFYJgJqOlRH4rCSIgsl9tpI7QV7vyGEnVNkOoVaK4YsCSW5qVUrAj3MmyNGSDg/Ydis6DwT+4khybh7qzNYiR4Is52YNfDRM+oPAkZKOyq25uRFkHUlnON/v3LAyfcIj8GF3Shm+poo15EQQyHG+pHUr6m6vdRMBTrfYl2QhuRAEcnDTyiWgiSHwFUm75wBDDgSBHMRsekIOgJgO2SDwc0kbpNYmNUEgx69Sg2D1Z4sAoVYXS6ldSoKsJ+nmlI23uotAIClJUhFkCxesrIgeMiWTI/BXSU9KoUUKgjxHEibQJoZAHQRuk7RmnQ98vBubILbn8NFr/S0j+sY9JkFWc3sO8mOYGAJNESBC/Quaflz3u1gEWUHSj1NMkXUBsfeLQIAL5VfG0DQGQTimI9Q+eTVMDAFfCOCheJivwsaVE4MgX5e0S+iGWPm9RGBfSaeHbHlogpwg6d0hG2Bl9xoB8jISTpa0DUEkJEFeJemsIFpboYbAPAR+7SJo/ikEKKEIsrYkgoeR4NLEEAiNwFclvSJEJaEIQkS9nUMobGUaAmMQIEj5p32jE4IgfXeVfUzSHyUx5fOT52+S/uUeogzy5+Gfg3+jj5ec8eCPTyaspww9hFvl+Nzk/wj8WdKWkn7nExDfBGGaw5a/y0IUjp+MIMGAEHRULMH0guPzwQNp+ixfkESgD2/ikyCrSiIgWM55w5sA91tHCEjBZWe2ETgk4c/PLTMPv03J4943IXuYt8MhnwT5jKQ3Fd4b5AyHCBhTkkWJhyQxpcqLnWce3nmLl9qImnrf4n453Ffzu5Gv+yIICWvIiFqifMfd9A8I8VCJjZiiM6Fa3+h8vRfpYPuGm/RxSQf6aKcPgiwkiZirJZmSQIrB83sfQBZSxkaOJH1IYrqNW/K36hofBCG4GydXuctlkjB7gRh9IsWofnmpJGyZuK/qqnxLEiubVtKWIPxGYvZI6jc8AYHfSLpI0tckkR7MZB4CKzqSeD31yQxg2sbJVmNpS5ALJOWWD5D8E2fPIEZjcHryIQcrx0patoPtJebB89pkuGpDEPIBBrWkrNlh+C3z24LHIqXUA4/7E0jyonqfFfE2SXs+2FTTpgRhY85RaA4XU6QgHhDjnqZA2HdzEGAwESO3S0L+dmYRjBprS1OCkIOchDYphWBzpzlyEBrGxA8CxMd9r5+isinlc03v6JoQhA05G95UMXQhxqnuyaYHOqYI8XG93CNkggv70mc3icPWhCDvkvSRBA0PSQzM8rnHebIdA8/tWX7rkhOyK9Lo8rAuQZZxe4+nRUSNO4sTA84Y7x+xicOWiegZfZcvSnpNR0DAepprCWzrKktdghzqzs4rV9DyRfY5XGiRhci3bOqIsd2Igsmfd4DvCgstjzukXQvVfVhtXMBr7a/qEITQj5xcxUhRwOXjh9xyJ0Tf4CdPNqNFxxTO5n+/EBUXWCYWwT+cgFVJTcIvh1nkrqpK1yFIjCNAnIaYMSBHCHmmO++fFmWFO54zQyhQaJmE1zmmUN2H1eZOhLFcSeoQBD+IkKmYsZXiN/vPKmle/6WtJH2+gr8KdynED47p+FS/NfG/YBYh6Hjpwp52LUlERJkqVQmCX8HFU0tr/gJ7DU7HOI4LIXU8HbNMJhkClJplbi/puzW/yfV1VhDETZgqVQnCvUOINTnuq+SjY1McSg6psWSz2WNyL3C8zy+y0qXyxWEVghAwAC8tfvqUGx3YTN2hBNP2HWsUbrPHZLDWcGOhdKcrAmk8Q9JUC4wqBGHmYAbxKSSNf7skL26RYxTDw7GuPwC3rRDXZDwC9F2UwNGBOwE35KkBRqoQhL0HexBfEuOOocmS8HJJ2/pqZIfLgRyQpHThlJLTyokyjSCcWvmM4hEjUfz73FHutLYP/z97IWyQTCYjwPIKy9jSo9eweuE06/5JzZ1GEJ93HwQN8L1UG25bm3jAuJ/igWgyHYGubNZfJwlzmrEyjSDEueL+oK1wr4CxYUjB5p/lIPZidQXr5E3qftTj97FVw9qhdCFGAf75jQhCqJjbPSAwjYQeqpgTlhMn/aaJ5zGGfI8PRXpUxh2SSKtXumBdMdYDddLgxeH9jJatJ8Ys5iOhhcAME38TTFFgBxeNPrSeXSr/2x1x0T1iUlSeSQRpa+pM1IwQVrjDg+yjkt7RYuRhwOb7jqeFOsV8epKkg4rRdryiHEKNdR2fRBB2903W86jy9Eixpzh5OrllJ12YYWSWlk2K8vkeks6LUlP4SrhMHmlGM44gbMzZoDcR9gHksw4tXPSQ7bStmOVuMwSJ9Rtj+dxMu3pfEfiQpdZ8Mo4gbFoPrlfHnLdjeeLhHouxGdHM2wrLK5ZZJvUR+Lekhet/lt0XP3C5DisThPsALlHqCFMugeRCC/7jnFj5Mr0HHJPmCPi4Bmheu78vcQgkttosGTWDsLmuG18Ki9nj/ek6sSRL7xYJ6J5Vg0sEuQ6nEoTcgpVs5V1J3I5zSx5DfN7sx9DX6igHgZFu1qNmkDqD8FJJo4IehIClzcFBCH2szG4hQBzf+ZbtowhS1Uz8NkcOfsYQX2YvMXS1OspDgBM5LranLrFIRrlShfYR6PiSCu/5eKXOrOajPiujnwgQOPDemU0fnkGqbtCJLUSMoRjCke41MSqyOnqPwPOHx9owQaps0Lmci+lRhtcXJwwmhkBoBF4r6UuTZpBpSxlCprApx5Izhuwp6ZwYFVkdhoBL/UBAwbkyPINM26CTTQrbpRjyeDfd4UtiYgjEQIDZg1lkLEG47BvnF0HEQyLsxZI64Xpi6WT1dBsB9rrsQ8YSZFyANU6rYqbneqKLLoIjlIkhEAsBTrA4yRpLEP6DNT9r/4HgbYWdVaMUVg1bZrNHQ+Dss9YIzHLyG2fNy3EvMaJ4MCWJGad2CTd74FNiYgjERoDbdG7V50gMf/G6DSSg3MfqfmTvGwKeEJjlfp0bQRZ0s4cvU3ZPmFkxPUJgllVvbgQh3dfEOEU96ihrahoECFZCWvEsl1h2a55mUFit8xAgxfmnciQIoSzxZOSC0MQQSIUAeTgJkZvdDOIjQkkqUK3e7iBwrKTDcySI+Xt0Z5CV3JJZ+dRz2aRvLOnaklE13TuDwOmS9s1tBiEyIhESTQyB1AjMcufIZQY5W9JeqZGx+g0BSaTtm5swKheCEGYI8xYTQyA1ArOCyOVAEEKVhsqNnhpsq788BLIjCBcz5Ek3MQRyQCA7grTN7ZEDqKZDdxDIjiBVwwx1pwusJTkjkBVBqoYZyhlQ061bCGRFkCphhroFv7UmdwSyIsi0MEO5g2n6dQ+BrAgyLcxQ9+C3FuWOQFYEsQ167sOlf/plQ5ClJT3QP/ytxZkjkA1B1o+U7DPz/jD1MkMgG4LYCVZmI8PUmYNANgR5i6RPWqcYApkhcKYkUoPPkZTGiuQXeXdm4Jg6hgD5NgmWmJwg50bOM2JdbwhMQ2C+hLQpZ5ArJW0+TeOE/791wrqt6rgIPCzpd5L+PlxtSoJcLynn3B/LjQIsbr9ZbakRSEmQX0paNzUAE+pHt5gR7TOGor+qpSQI6aPXyBj6F0q6LGP9TLUICKQkCCkVZiUridDeOlW8WtJZdT6wd7uHQEqC/EPSUhlDerCkj2Ssn6kWAYGUBPlP5nF48ZMnV4lJjxEwgozv/FnxkXo8Rnrd9JQEyX2JRU54SwPXa3qkNTXJfZPO0Ej5C6TnQzOP5qccALkf89JDzCDMJCY9RSAlQXK/KGRIvEzS13o6NqzZiZcQuZuaMEBIxUXkR5OeIpByBsndWJEhQczgjXo6NqzZiWcQstmS1TZ3WVkSwSVMeohAyhnkMEnHFID5npLOK0BPUzEAAikJQsJ20j7nLnajnnsPBdQvJUGeKekXAdvmq2i7MPSFZIHlpCQI+dCxxypBSMmF6YlJzxBISRCg/oOkpxaAuS2zCuikECqmJgiXcLuGaJjnMm2Z5RnQUopLTZCDJJ1UCFhvkHRGIbqamp4QSE2QzSRd46ktoYu5StIWoSux8vNCIDVBFpaE2fsT8oJlrDZ7SLqgEF1NTQ8IpCYITfiepO08tCVGEeZEFQPljOrIgSDHSTo0I0ymqbKXJKJCmvQAgRwIUsqN+mA4YMD4AkkP9WB89L6JORBkeeeUREKdUuRISUeVoqzp2RyBHAiC9hgDsgEuRZg9mEWYTUw6jEAuBNlX0mmF4fxtSTsVprOpWxOBXAiyiouuvUhN/VO/bkut1D0QuP5cCEIzS00JbadagQdpyuJzIgi+3xgFlijkEiG3nUnHEMiJIKs5/5AlC8XYSBKn41Z31dwRo7qcCEJ7SYG1X4yGB6rDSBIIWEksZQ+UtImr4lpJ75T043BV5hc5cJsO5OTgZIsTLhM/CDxXEpH2R10DcNzORfMlfqqav5TcZhA0JGkNRClZZqUSLrkhCXVfxmVBJhMy3qfjhBQVECiI5EgQllhz0/AGaXWcQjHCJKVwlLVynCZFq+X1jhzrVKiRw5FgCVdzJAibdII5sGkvXWgHxphm3FitJ1kuQY6dq70+563eEYRGY93LwOqKQJATzDRlbHdCin0aOqT1kiCLOk/DDbrCEGf9C0lw272rQ+1q2hTS7w2I0aafe0kQQH+dJDa7XROS1UOS03uaZprMxnu7GcNHRJveEgRiXCyJmFRdFGKCQZRvSvp+QTHCmvQFNnYvdekk+OnT5q7XBMEVl9Ogrsvdrp0Qhfbe35EG4xJAjhVI4WO2GAVLrwkCIJjBYw7fF4Ecl7v7IH7eWlDDHydpXUnbOmJAkNDSe4I8Q9KPJK0QGulMy7/FLcHIyEXaOqJR5nC3sqwk4isPnvUk8cT2DO09QRi3JQWYi8GzxxxR7pR0r6S/Dj0PSHrQnZxhjjF4HqmhHK7Q5EZ5intm/nltSavWKCvkq0YQh+4VkrYKibSVXSQCRhDXbTtahPUiB3BopY0gMxAmqeabQyNu5ReFgBFkRnex7r3U5S8vqhdN2WAIGEGGoN3B+VssGAxyK7gkBIwgI3qLZRbLLRNDwAgyZgyQV4TjX5N+I2AEmdD/Fzkzhn4PkX633ggyof+5vML/mxtck34iYASZ0u/PcxaxmD6Y9A8BI0iFPt9d0vkV3rNXuoeAEaRin5Jk8/MV37XXuoOAEaRGXxJY7JQa79ur5SNgBKnZh4dLOrrmN/Z6uQgYQRr0HcEALKd5A+AK/MQI0rDT+uKu2xCeznxmBGnRlbh8YtzoM0hAC3Xs0wAIGEFagvocSV+WtFbLcuzzPBEwgnjoFwIJYNy4pYeyrIi8EDCCeOqPxV0GK0JcmnQHASOI5748TNIxnsu04tIhYAQJgD3ZisiHuFyAsq3IuAgYQQLhvbGkExtGFA+kkhXbAAEjSAPQqn5CJECWW++t+oG9lx0CxDbeJZRWOSbQCdXWSeUCMEQxv5IU6Ler83hJh7QrYvzXRpB52BDaFBsu0qaZlIFA0OUVEBhB5h8I5CXBKnjDMsZIL7W8weWxDJ7L0ggyenyxNznAPcShNckDgWjEGDTXCDK545dwJCHM0Op5jJFeahGdGEaQeuOMSOfMKPu7iOf1vra3myKQjBhGkGZdBlHwNWGfQl4MkzAIsPk+x+0zwtRQsVRbYlUEaug19igDosTIotRMy7K+uk/SBe6BIFmIEaR9N+zmZpSd2xfVyxIgw4AYkCQrMYL46471XZTHXSVt5K/YTpaU5WwxCmkjSJjxt70kiEJ215XCVFFcqfdIukYSmcKYMbKbLYwg8cfUUi7P+zaSeNaMr0KyGiEAhOC52j3JlGlasc0gTZFr9t0mkphdeLq2uSdx6FWSrnTPdc0gyusrI0i6/sDDkXzikIZnU0n8WwnC7HCzpF+450ZJN5WgeF0djSB1EQv7PncrEAU7sHUk4UufMj/8o0NEGJDiL2FhyKd0I0g+fTFOEwgCUSAMG/5FJS3mfvLn4b+P+r9J6epYGt0x4yH3On+/VdIt+cMTVsP/AXTF8ue/wX7LAAAAAElFTkSuQmCC;" vertex="1" parent="1">
          <mxGeometry x="450" y="80.75" width="38.5" height="38.5" as="geometry" />
        </mxCell>
        <mxCell id="VbQuB4XpZksFyxAy7RYw-7" value="" style="rounded=1;whiteSpace=wrap;html=1;" vertex="1" parent="1">
          <mxGeometry x="140" y="160" width="570" height="60" as="geometry" />
        </mxCell>
        <mxCell id="VbQuB4XpZksFyxAy7RYw-8" value="应用层" style="text;html=1;strokeColor=none;fillColor=none;align=left;verticalAlign=middle;whiteSpace=wrap;rounded=0;fontSize=22;" vertex="1" parent="1">
          <mxGeometry x="160" y="175" width="100" height="30" as="geometry" />
        </mxCell>
        <mxCell id="VbQuB4XpZksFyxAy7RYw-11" value="徽章" style="rounded=0;whiteSpace=wrap;html=1;fontSize=18;" vertex="1" parent="1">
          <mxGeometry x="508.5" y="175" width="50" height="30" as="geometry" />
        </mxCell>
        <mxCell id="VbQuB4XpZksFyxAy7RYw-12" value="学习记录" style="rounded=0;whiteSpace=wrap;html=1;fontSize=18;" vertex="1" parent="1">
          <mxGeometry x="420" y="175" width="80" height="30" as="geometry" />
        </mxCell>
        <mxCell id="VbQuB4XpZksFyxAy7RYw-13" value="发布者" style="rounded=0;whiteSpace=wrap;html=1;fontSize=18;" vertex="1" parent="1">
          <mxGeometry x="270" y="175" width="70" height="30" as="geometry" />
        </mxCell>
        <mxCell id="VbQuB4XpZksFyxAy7RYw-14" value="挑战者" style="rounded=0;whiteSpace=wrap;html=1;fontSize=18;" vertex="1" parent="1">
          <mxGeometry x="350" y="175" width="60" height="30" as="geometry" />
        </mxCell>
        <mxCell id="VbQuB4XpZksFyxAy7RYw-16" value="..." style="rounded=0;whiteSpace=wrap;html=1;fontSize=18;" vertex="1" parent="1">
          <mxGeometry x="630" y="175" width="50" height="30" as="geometry" />
        </mxCell>
        <mxCell id="VbQuB4XpZksFyxAy7RYw-18" value="验证" style="rounded=0;whiteSpace=wrap;html=1;fontSize=18;" vertex="1" parent="1">
          <mxGeometry x="570" y="175" width="50" height="30" as="geometry" />
        </mxCell>
        <mxCell id="VbQuB4XpZksFyxAy7RYw-27" value="" style="rounded=1;whiteSpace=wrap;html=1;" vertex="1" parent="1">
          <mxGeometry x="140" y="250" width="570" height="60" as="geometry" />
        </mxCell>
        <mxCell id="VbQuB4XpZksFyxAy7RYw-28" value="基础服务层" style="text;html=1;strokeColor=none;fillColor=none;align=left;verticalAlign=middle;whiteSpace=wrap;rounded=0;fontSize=22;" vertex="1" parent="1">
          <mxGeometry x="160" y="265" width="120" height="30" as="geometry" />
        </mxCell>
        <mxCell id="VbQuB4XpZksFyxAy7RYw-29" value="日志" style="rounded=0;whiteSpace=wrap;html=1;fontSize=18;" vertex="1" parent="1">
          <mxGeometry x="600" y="265" width="60" height="30" as="geometry" />
        </mxCell>
        <mxCell id="VbQuB4XpZksFyxAy7RYw-30" value="配置" style="rounded=0;whiteSpace=wrap;html=1;fontSize=18;" vertex="1" parent="1">
          <mxGeometry x="488.5" y="265" width="60" height="30" as="geometry" />
        </mxCell>
        <mxCell id="VbQuB4XpZksFyxAy7RYw-31" value="标准化接口服务" style="rounded=0;whiteSpace=wrap;html=1;fontSize=18;" vertex="1" parent="1">
          <mxGeometry x="296.25" y="265" width="150" height="30" as="geometry" />
        </mxCell>
        <mxCell id="VbQuB4XpZksFyxAy7RYw-40" value="" style="rounded=1;whiteSpace=wrap;html=1;" vertex="1" parent="1">
          <mxGeometry x="140" y="340" width="570" height="60" as="geometry" />
        </mxCell>
        <mxCell id="VbQuB4XpZksFyxAy7RYw-41" value="区块链交互层" style="text;html=1;strokeColor=none;fillColor=none;align=left;verticalAlign=middle;whiteSpace=wrap;rounded=0;fontSize=22;" vertex="1" parent="1">
          <mxGeometry x="160" y="355" width="160" height="30" as="geometry" />
        </mxCell>
        <mxCell id="VbQuB4XpZksFyxAy7RYw-44" value="交易构造" style="rounded=0;whiteSpace=wrap;html=1;fontSize=18;" vertex="1" parent="1">
          <mxGeometry x="315" y="355" width="95" height="30" as="geometry" />
        </mxCell>
        <mxCell id="VbQuB4XpZksFyxAy7RYw-45" value="合约交互" style="rounded=0;whiteSpace=wrap;html=1;fontSize=18;" vertex="1" parent="1">
          <mxGeometry x="420" y="355" width="95" height="30" as="geometry" />
        </mxCell>
        <mxCell id="VbQuB4XpZksFyxAy7RYw-46" value="事件监听" style="rounded=0;whiteSpace=wrap;html=1;fontSize=18;" vertex="1" parent="1">
          <mxGeometry x="525" y="355" width="95" height="30" as="geometry" />
        </mxCell>
        <mxCell id="VbQuB4XpZksFyxAy7RYw-47" value="..." style="rounded=0;whiteSpace=wrap;html=1;fontSize=18;" vertex="1" parent="1">
          <mxGeometry x="630" y="355" width="50" height="30" as="geometry" />
        </mxCell>
        <mxCell id="VbQuB4XpZksFyxAy7RYw-48" value="" style="rounded=1;whiteSpace=wrap;html=1;" vertex="1" parent="1">
          <mxGeometry x="140" y="430" width="570" height="60" as="geometry" />
        </mxCell>
        <mxCell id="VbQuB4XpZksFyxAy7RYw-49" value="区块链交互层" style="text;html=1;strokeColor=none;fillColor=none;align=left;verticalAlign=middle;whiteSpace=wrap;rounded=0;fontSize=22;" vertex="1" parent="1">
          <mxGeometry x="160" y="445" width="160" height="30" as="geometry" />
        </mxCell>
        <mxCell id="VbQuB4XpZksFyxAy7RYw-50" value="交易构造" style="rounded=0;whiteSpace=wrap;html=1;fontSize=18;" vertex="1" parent="1">
          <mxGeometry x="315" y="445" width="95" height="30" as="geometry" />
        </mxCell>
        <mxCell id="VbQuB4XpZksFyxAy7RYw-51" value="合约交互" style="rounded=0;whiteSpace=wrap;html=1;fontSize=18;" vertex="1" parent="1">
          <mxGeometry x="420" y="445" width="95" height="30" as="geometry" />
        </mxCell>
        <mxCell id="VbQuB4XpZksFyxAy7RYw-52" value="事件监听" style="rounded=0;whiteSpace=wrap;html=1;fontSize=18;" vertex="1" parent="1">
          <mxGeometry x="530" y="445" width="95" height="30" as="geometry" />
        </mxCell>
        <mxCell id="VbQuB4XpZksFyxAy7RYw-53" value="..." style="rounded=0;whiteSpace=wrap;html=1;fontSize=18;" vertex="1" parent="1">
          <mxGeometry x="640" y="445" width="50" height="30" as="geometry" />
        </mxCell>
        <mxCell id="VbQuB4XpZksFyxAy7RYw-55" value="" style="rounded=1;whiteSpace=wrap;html=1;" vertex="1" parent="1">
          <mxGeometry x="140" y="520" width="570" height="60" as="geometry" />
        </mxCell>
        <mxCell id="VbQuB4XpZksFyxAy7RYw-57" value="存储" style="rounded=0;whiteSpace=wrap;html=1;fontSize=18;" vertex="1" parent="1">
          <mxGeometry x="325" y="535" width="55" height="30" as="geometry" />
        </mxCell>
        <mxCell id="VbQuB4XpZksFyxAy7RYw-58" value="网络" style="rounded=0;whiteSpace=wrap;html=1;fontSize=18;" vertex="1" parent="1">
          <mxGeometry x="390" y="535" width="60" height="30" as="geometry" />
        </mxCell>
        <mxCell id="VbQuB4XpZksFyxAy7RYw-59" value="共识" style="rounded=0;whiteSpace=wrap;html=1;fontSize=18;" vertex="1" parent="1">
          <mxGeometry x="460" y="535" width="60" height="30" as="geometry" />
        </mxCell>
        <mxCell id="VbQuB4XpZksFyxAy7RYw-60" value="智能合约" style="rounded=0;whiteSpace=wrap;html=1;fontSize=18;" vertex="1" parent="1">
          <mxGeometry x="530" y="535" width="90" height="30" as="geometry" />
        </mxCell>
        <mxCell id="VbQuB4XpZksFyxAy7RYw-54" value="" style="shape=image;verticalLabelPosition=bottom;labelBackgroundColor=default;verticalAlign=top;aspect=fixed;imageAspect=0;image=data:image/png,iVBORw0KGgoAAAANSUhEUgAAARsAAABoCAYAAADB7FT6AAAYUUlEQVR4nO2dTUxb17bHFwbXjRtEBhirPigZ3PtEQ+Q7CmYIUVAnldKQS1SJVFVfR01CIzFqog5QBlXSEVJCyRvlVVVhEhq4GVZEgWFIRtcKvei1g0SxI3AGpWlMqcG8gb1OjvfZe5+9z5cNrJ9UNdg+Hz4++3/W1167aWdnZwcIgiACJlLvEyAIYn9AYkMQRCiQ2BAEEQokNgRBhAKJDUEQoUBiQxBEKJDYEAQRCiQ2BEGEAokNQRChQGJDEEQokNgQBBEKJDYEQYQCiQ1BEKHQEtaBHuRfQL5YhFQ8Dl2H2iAVj4d1aIIgGoCmMFpM5ItFuPf0Wc1rXW1tcDzRDq3RaNCHJwiiAQjFjXpceGl7bWV9He49fQb5YjGMUyAIos4ELjb5YlEoKK9KJbJsCGKfEHjMZuW3deF7qXjcJjblwiqUC2sQSXRAJJEM+vQIggiJQMXmVakEK+tisek61Fbzd7mwCn+MfAYAAM3daXirbwCaj6VJdAhiDxCo2PBiNUhrNApdbbViszkzbf57ezkLG8tZiCSSEBsaJtEhCAvPczkAAJid/RcAABhGCgzDAMNIQadhCLfJ5fIAAJCrbi8jk+kx9/Vw6REsLT3ifs4wUtX/G9Cb6RHuL1CxkVk1xxPtNX+XC6tQWpi3fa5cWIWNW+MAAHDg/OieFp2bE5Pw4+wcAFRuhh++/0744z1cegQff/Kp+felkYvwxcgF870vr3xV8/lvrn0t3NeXV76Cu9XjAlRumoX7P5l//9d7x7jbGdUbsdNIQW8mA4ODH9pudPY8nTgzeBq+ufY1AFQGx4mT7ws/i8fvzfTAmcHT3O/HfjfZNbXSf/J9pQGJ/N9/npj//viTT+EhZ2AahgGdVVEAAOE5y3iey8HHn/y39NwMw4B/Dp427wfk5sRkzbVw4ofvvzN/z1wuBzcmvnXcRnRsgAADxA/yL6Tvy6waERu3xuGPkc9g49Y4lAurns6vEak8eXJaNzmPytMtZe4rl8vZxAd5uPTIdgPiYHcC9/1w6RHcmPgWTpx8H25OTHo6dx3w+Hdn5+DjTz4N9dhuwGt1d3bOPOd+xWv2PJeDmxOTcEJBBFEY+iVCHRR4bN79FpjYyKyaE6l3ba/xrBoRpYX5PS06Xuk0DLjOCAYOSpabzNPKzdPWyo2Jb+s26G9MfKv15G4EVIXh8pWvlCwLK/8cPO3l1KRUXDbDtNJYUFCtBOJGyYQGwG7VAADEzp6DzTtTWscpLcxDaWEeov0DEBsa3rPulRs6DQO+ufZ1zRPmxsRkjR9+d3bOZu47WTWGYcAli4nMs4x+nJ3jmtG4vUzMnN47YxlAuVwefpydq3nS352dq/mMX3jZZ+05V86Vve5offKuP88tQ3clk+kBw0hBLpevCtck5HI56M302H4D1sW9NHIRMpbrjbEX0eetsG7581wOLl/5quY82d8itOkKCBurQWJDw9DcnYbNO1OwU1jTslhQdJq703DgwiiJTpVMpgd6Mz3mDZCrmuJ4Q99gLJAfvv/OcZ+dRqrmBjpT9c9lsRUrvZkeZTeNxTAM26AfHPyw5tjPqwFQv3F7zqJt787OmcJgfY21LB8uPbIJjTWuhVSEoQcymR5YWnqkJI54f/hBp2HAFyMX4aElPsf+FoG4Ual4XCgqx9v5rwMAtHSn4Z2x6/D2hVGI9g9oi8b2cpbcKws8dwpv3pvMjd7r4cZjn4C5XM7MlgSN07FlT+d6cmbwNPzw/f/a3BDWrWWtRqNqsYro5AhyWLCxpE7GUgrEsmmNRuF4ezt0tbXByvq6mQLnxWp4tHSnoaU7DVvLWSgtzsP2k6y2pRPt0xerRmNp6ZEwGMjLdvBg3amKdfOtbXtWlHTgxUlEg9xJiHTFgReIDEJg/Dxn63bfXPu6JlvnZJldErinbrg7O8dNZ+N3lYla5Xd8Iyazs/+yxZRYIQ3UjbKKjptpCSg65cIqbM5Ma4lOJNGhfbxGQzcgKIJ1p3hxGtUB8zyXrwkAP1xa4pr5Ih4uPZK6XA/u/yQ8FzaNzhNcp6d6Rbz1LTjZOfPcGlXYOAlmrNDKZL9jRmB9igLMMrdVFkwXBX4RUXbTCvtbhBKz8Tr/KZJIwoHzo8qiEzt7zmbVPMi/gFelEhxPtO+79hboTvEGDBt0dUKl3iIoM96pLIAX02l0OqsBc5GlandN7CLwXHpd/InJ6HJp5KLNLfctZrO1nIXfP/oAfv/oAygtzAcSM0HROThxWxrTifadrPn7Qf4FrKyvm60upn75dd/NNu8U+Ppe3CcWwzCUi+b8BmMZ/gU8U84fUsQpfsW6TmjthBX38pMzg6fhwf2fuNlI3yybPyfHzX9jxa/blPSrUgke5F9A6p240AU7cH4UACrxmc2ZaVPcmrvtFcZsKv5VqQT3nj6D44l2acA6bNinlk4FsQqsCd5rSYPr0FuTLjXMfYjS3ey2vZlMdVv7gJadD6Z7nzM1Q17cGFUujVysnoP9nJ1cDidEVgnP6rG6WFbYDJYKXh4Ml0YuwuDgh7DEqVYX/Ya+iM3WMt+tcVsHc+/pM3hVKkG+WISV39bN7BZPdKL9AxDtH6hYUy/XIDY0XPP+45fi+Vn510WAxtGaXQFaL162VxElHp1GytwWYxsA/JSx37g9Zyd4BZAywb07O2f7np3MbyKaXsLiNn4FgFXqBkDGfn6i38IXN8pq1fDAit/XVy87ulcr6+vwqlQy/8aZ406NtlDQWGSTQVPv8GM3lDb3D54l4AdfVC0NRCVg2WjgNA8rl5jvxcageIWY9YTnnot+C8+WTaX/jNrgxDoYWfGdSBzQ0tEJ7upWMm/OTJtVzFSV3Nj0cgoW3VQPq9bkPM/lat5n4ykq7qh1pjZb+QzAt/rYTCJAZTCLJjvqxHnuzs6Zs8B5GEwBp4hKFbNhfh8sHmXPzxc3KpJIalkD28tZKF69Agcnbte8zlo1LLxpDjJkVg0bCyoXVmumS9BUiGDgzZlhkaW/rbAVq+x0DB5fXvlK+OS1zpxncaqQ9rItwos78TKJmBH8cXbOnEVudStV4VUnW1HNVHZWp7BYr+uPs3O2LgCe3ahIIgnxsWuuKn5ZZF39dGt1nISLrXAuLd7nfk7HBawnuzFz4RW26hmfqPVGN2BsGAY8uP+TMOYkyiRaZ5EH7Vo5fSd26gPvt/AlZqOakrYS7R+o+RtT0yLYrn5OeLFqeKAL+PrqZdhazmqdi1u8tprYD7Cxm0aLacjAYPuCgiWHKWU2piPbt8za8hveNAn2t/C9qE+UkraC3fesOFk1urEaHatm+4m6eFRcwMuBTPpEHxlvPNnTxDBSNTeeaiC2dv9q27g5DntMK6rpdvaJzrseWCFrjT1YsyyZTI/yALWWBvRmMjXHczpn67bWa8yCHfXcZM46qzEdTDk/rE5neZ7Lm+5Up2EIJ1gODn4Ig4Mfah0P6c30mA3C2PgVcqY6C120D9frRuGqCal4XCoEPNGJnT1XIza8daWsnDpyWEtsZJmrrrY22xytcmEVilevaLtJzdWJowRBOOPKssGiOKSrrU24yqW1DuavxXmIdNitGml62kHMdOG5Y5FEEg5O3IaNW+N68686KGhMEKq4smyw/J/FTUWu31YNwBsxZF0pnlXDY3NmWmnKxcGJ25SlIghFXAWIRfUrjwsvpbES0TYieFaNSh/i1mgUzv39b3Ai9W7N9qpB5tjQMBycuA0HzotjMpFEkoSGIDTQdqOcGpnrpKexUE8EKw5by1mzV3F5YdWxDqarrQ262togXyxCazSqPfvc6gKycae3L4xq7Ysg9jvabtT//Pwf4XsnUu9qFd6J3DGAN9aJlT9GPhNaM2G0BMVmXtG+AWjpTgd2HILYi2hZNrJJjQD6Fb6660rJYijWqRCxs+cCEQNs5kUQhD5aMRtZfEXUc1iE7rpSogpfFqyD8VJ8ly8WpVYXQRD6KFs2bpZncbs/1V7FMqzFd5XOfR1KLpY1O4b9k48n2rW/H0EQtSjHbKZ++VWYaVJNKSMr6+tSy+bzo+9xX5dVJTvR3J2Gt/oGHJfvFVk0qXgcTh05rH1cgiAqKFk2uuX/TqTicWiNRrn7lO1Llh1yYns5CxvLWVN02LlZAG965/DIF4vwqlTy3E+ZIPYrSmKjM6kRoFILE0kkIdp3kmtFtEajcOrIYcgXi7baHJWiQD9Eh9vVT/I93aTOCSJMKkmUNdiuds4sr1XGxU5hDZoSHWbFe72yqY5io2vVYPUtAMDmnSlhHUxrNGpOsMwXi5B/XdSe2Y2is7WchT8nvS9Mp5MdCwL8HkHA9g5SBQXdytsXRn25Wf8Y+cz1ts3H0tByNO3oFvt97KbqEkFv9Q1AU0dS+zrgPDwrzcfS5gRmN2zOTMPWk3/DtiwhUlg13y8tzEMkkYTmY+lQhcdRbLy2anBqQoWi4yUA29KdhoMTt2FrOQubd6bkF70KbwUGGWEEiHfW1LsehgXPcty8MwUtPkxA9fJdsagTQL/GSqe7pI3qdhvVeyySSGqJb5mztHQzuBvsqtNq+OexqlQY6yfS1Ldj57xD6ulpaxOqoPrB4PK98bHr0Cz58VVWYLDiR3ZsNyK6kXcKa6H19FEBOz+yFlgYVCyVy6Eeu1xYhddXL8PmnSlfHk6lhflQrp/UstHpMaPSgArAnpJ2a8JhwJZncbR0p6Fl7LrQ0jnATDXwu1hxr/DX4jz39XJhFUqL8w1V4Gi9/3iN74MGB74Xd0iFrer4cQIfpk2WlWFlFn8Y108oNtivRoRufIXFi+hYa2EeF15C16E2bmCZFZ2dwhq3k6CfxYp+g7512GwtZ6U3p07DMR2cBuvWz2/iDjxKC/PQ7KLSm9fQjXfs8tqq8LpgLCSoweokNJFEshLHFCRmyoVV2H6Sha2fs8Lrt3lnCiLtHdxsrVeEYiOzanizsSOJJMTOntP2Ia2io1IHA1AbX3lVKsHjwktY+W3dNssbQdHh4VSsWO9F7ERL1ASNk5VaLrzx9/0CB4sMfD82NAylxfu288QntG5MqSnhPMDw/YplZz82QEVwgvi90F3jgdfN6biRRBIi/W8+uzE5bhNOTLoEgTBmI1pTCUD8tMfWDG6an28vZ2Hj1jhsTI5LBUsUR0LR0cUpAL4fKRfsT2/e71mPGAmCpRW82NxOYS3wY8eGhiF29pztvXJhNZB41oYgS9lcTY7oClwkkYQDF0ZrvkN87HqgbqBQbLAqmLUUVDrnYfNzWT8YESg6ojadMotLtw7G72LFvQJPROJj12wDO6iBpQoOGJawzkskdiqxSx02btktEADvbWlRsGNnz0F87HrgMThpNqqrrQ1OHTlsik5rNKo1AKP9A65Fhys0dVyBYT/B+vNoqb7VZzev/R5YutSzgVkkkYSWY/+wve6nZYXuKotf/a/RSgsj2K9UQey1DsZNxS+vE149V2DYL/Bu7GhVZHiBakyD1zMzxVskcWdtFSCEc4q0dzh/yAMiV5XnwjU6Nstma1m94bcuaOnEx647PpHYIJXf2TGyavjwbm4UEl4AF9Pg9YR3v9YjgxcEPPEPql9T0NRYNta1rv1oQiWauOhU8ctLH/q5AgNZNXx4gXk2YBjtG7ANgKDS4CqIYjP1dK/8EjpRepqtft8tmJYNW5TntQnVvafPYOqXX2Hql1+FRXOiil9WaJysGl1xyL+WWEj72KrhFfGxA6elO80NFIsGRtDwYkZhuhi8a+aX0GFNkRU/lrmuF6ZlI5pq4KYOxioO1joYleI7XpMrv9eVSr0TF9bXeC1W3K3wivhEN/ZbfQPm3CBkc2Y6sPoMEaIsTVh1SaLCR9lUGR14At5ydPe5T0gLgPpa19Z+MDLR4YkDio5MHHgum65VgwVXsipSDCY/LrysER3dIPNeghd3iXKyTwB8NwHTzUHFEtC9wxYKvPsVJ0WGgaia1031smj/PHZzLKoqNuqpOhSdSCIJ8bFrNsFxEgftWhiHuhrbulKWqkiZMLZGo3Ai9S4cT7SbPXUaccKlpxnKVVTMbvYpKhs0GChmt/E6G7xcWIXfP/rA1ba6s69Fx5e/XxE6WdEpr+7HDTtr9v3v9rXKWgAqFgUvfSgD+3KwfVKcpjnoriul02Nmc2a6xqxVscZQdBoVbNHhFlxaWMbGLXt1Kq+mxkpsaNh2XjvV9glhDghMJnh14XB1Di+4qSfTwTqpcjdiBohVU9JW2C/vJA5+pqexD44V0aC0ViW77f+xl+Flk5wGbySR5AaK6zGFQTaxMAwqVv71wGNWu31t+ZrUt24TKlurBk1xcMLPdaXwM9iyNDY07LrL216CJ76qg4YXKA47DW5tArU5M8117YNCdQKkG8ov7aGNMse12k1wK4id+sEACCp8fWyrGdS6UgBvRAegYtHtZ8HhWSKqg0cUKPYyG9zJ5UMx41kz6NoHPVM+jM52QVcm1wPpdAVePxh8CrJR/zBXy+TFWGJDw859WDlszkwH3vDIC83dae78G1VkN63IqlEdRNhWhM0MuU2DqwRAI/1J8zxjQ8M1Pa8BLGIn6OkiO3Z87JrtdXb/ABULI+gHVBPHZQp6NnvQKM2NsorOdjXgykb9/W5AJVrqBUAsXO84WGM8Gt2qaTn2j8Ce0ryCNN06jmjfSW5PmTDmS6E7zDa0wtiRzkOkSbCIIS8QjhmpsOuKdjtaa32L1rp204DKKWtx6shhc0XKmn05CJeKC4gE2VWt0REVpDV1JLUrxnmZzLDahmKbCbYlScW68b5yQCSRhAPnR20Zu6CLGHnnHZaIB4WW2IiQpbNZK6RcWDVrYWRL47ZGo3C8vbLsLYoOvqaCVXRKi/Ow/cQ+wXQ/P5lEkydV+tuqgNc7DMsxkkhWMqPM77vt08DERIL1/sG4X5AueHN32vZAaLTezzpI+9mokorHhS05WUuktHjfvIA4FULWnQ8F5vOj78G5v/9N+9xauitr8rx9YbQmHrGfrRoAcZmAX2Ald1jw4lpbT/7ty75F90ppYT7QJl28OV71nPTqFV8sG4A3PW9W1tdh5bdKk6sTqXcd15UC0JsK4RZ0AbeWs7CztsoNwO0XwqqFCaofL4+g24NG+wfgr8V5m6Xx5+S46wUAnUCLn7Wodmu8yBfLxgp29/v86Hva6ekwiu9autMQ7a/P8qONQlgFcGG2DeWV9/uNqAVpUOItsqh0l5xuFHyzbFRQNWutdTAHzo+6snTuPX1WWVfqUNu+bhvBIhJxP57OvG79fq2e6QSvHYPfkxZFc8LcpNpVEcWLeFOFvBCGteS7ZSPDTb3Ixq1x+GPkM9i4pb6WN/Yqxpnm954+gwf5F9KGWfsFXrobY1le/+PGGJazoVg3YVlrPEsDkx5BILJurA9kr7y+etkcZ0FaTKGKTWxo2HFpXBG4fK+K6LDpcpyzhQvb7VdE6W6/4iq8rCKAOPPlF68FGbQg4kWYCmcJUlSj/QNcIccx4VYgcBlfvCfQYgpKuEMVGwD19bhFOImOrOXnfrdseMF5Pzu/iRaZCyqDslWdqS1qYBVU2l3k1v8ZkHUDIF42BgVCN24kunYYgwokXur7HlUPrFAHI6O0MA8tR9Nm+TpCi87x4S08B+B/5zdRRfHmzLSSpeH0VMUJik7N3vzqK8MDXRvWjQmy9gaLF3lxMczylhbmoflYGlqOprmCiOUITsmXoFqP1k1szBOwpKR1RYedGUuNzMWInnx+BwWx9YStGE0hDe5HHAKbaAVdTChKhW8/yQZW5YuCI1r61zoD3rqNzkM8dvZcYOUKobtRIrD4Lj52TUlZeYEzp3Wl9nNGirseVEDZhzCXpbXiR7c+HUSp8CDdKesqliqoCg325AmyLqphxAbBAJyT6LADxe/VMvcSItcksCdYoiOUZWnfHK+SCTs4cTvU+ilRjCro1SbwQXtw4rYvK0mEde3q7kaJsEb9N26N17hXbqya3dDIvKkjmB6zfy3O2/YbZOMwXKp3k6ngZVfPdHv8pkQHRKrXym19C7uN2y54saFhbgD8r8V54TX2MyAfGxqGaN9JKC3e12qxEmTjLxFNOzs7O6EdzSOlhXnY+jlrm82bLxalae1TRw7vCrEhCK+UC6s1DcYQFDi/Vn9ww64SGxEP8i+EbS5S8TicOnI45DMiCIKl4WI2bqAMFEE0PntCbHD9JxY3q2USBBEMe8KNQnBaAhb2UayGIBqHPSU2yKtSaV/X1BBEI7InxYYgiMZjT8RsCIJofEhsCIIIBRIbgiBCgcSGIIhQILEhCCIUSGwIgggFEhuCIEKBxIYgiFAgsSEIIhRIbAiCCIX/BxwXysEd9rOfAAAAAElFTkSuQmCC;" vertex="1" parent="1">
          <mxGeometry x="160.14" y="528" width="119.73" height="44" as="geometry" />
        </mxCell>
        <mxCell id="VbQuB4XpZksFyxAy7RYw-61" value="..." style="rounded=0;whiteSpace=wrap;html=1;fontSize=18;" vertex="1" parent="1">
          <mxGeometry x="630" y="535" width="50" height="30" as="geometry" />
        </mxCell>
      </root>
    </mxGraphModel>
  </diagram>
</mxfile>
